<?xml version="1.0" encoding="utf-8"?>
<!-- Generator: Adobe Illustrator 25.2.0, SVG Export Plug-In . SVG Version: 6.00 Build 0)  -->
<svg version="1.1" xmlns="http://www.w3.org/2000/svg" xmlns:xlink="http://www.w3.org/1999/xlink" x="0px" y="0px"
	 viewBox="0 0 128 128" style="enable-background:new 0 0 128 128;" xml:space="preserve">
<style type="text/css">
	.st0{fill:#231F20;}
	.st1{fill:none;stroke:#2BB673;stroke-miterlimit:10;}
	.st2{fill:#2BB673;}
	.st3{fill:none;stroke:#2BB673;stroke-width:2;stroke-linecap:round;stroke-miterlimit:10;}
</style>
<g id="bg">
	<path class="st0" d="M112.73,128H15.27C6.84,128,0,121.16,0,112.73V15.27C0,6.84,6.84,0,15.27,0h97.46C121.16,0,128,6.84,128,15.27
		v97.46C128,121.16,121.16,128,112.73,128z"/>
</g>
<g id="Layer_2">
	<path class="st1" d="M29,35"/>
	<g>
		<g>
			<path class="st2" d="M46.19,49.15h3.54v25.23h-3.54V49.15z M47.93,49.15h14.14v3.37H47.93V49.15z M47.93,60.4h12.24v3.37H47.93
				V60.4z"/>
			<path class="st2" d="M69.72,73.48c-1.33-0.78-2.35-1.87-3.08-3.3c-0.73-1.42-1.09-3.07-1.09-4.95v-6.92
				c0-1.87,0.36-3.52,1.09-4.95c0.73-1.42,1.76-2.52,3.08-3.31c1.32-0.78,2.86-1.17,4.61-1.17c1.45,0,2.78,0.31,3.99,0.93
				c1.21,0.62,2.23,1.5,3.05,2.63c0.82,1.13,1.37,2.45,1.66,3.94h-3.63c-0.22-0.79-0.59-1.49-1.1-2.11
				c-0.51-0.62-1.12-1.1-1.81-1.43s-1.41-0.5-2.15-0.5c-1.03,0-1.93,0.25-2.71,0.75c-0.78,0.5-1.38,1.19-1.8,2.09
				c-0.43,0.9-0.64,1.94-0.64,3.13v6.92c0,1.18,0.21,2.22,0.64,3.12c0.43,0.9,1.03,1.6,1.8,2.09c0.78,0.49,1.68,0.74,2.71,0.74
				c0.75,0,1.47-0.16,2.16-0.47s1.29-0.77,1.8-1.39s0.88-1.34,1.1-2.19h3.63c-0.29,1.49-0.84,2.81-1.67,3.94s-1.84,2.01-3.05,2.63
				s-2.54,0.93-3.97,0.93C72.58,74.65,71.04,74.26,69.72,73.48z"/>
		</g>
	</g>
	<polyline class="st3" points="46,79 64,97 84,78 	"/>
	<polyline class="st3" points="46,86.5 64,104.5 84,85.5 	"/>
	<polyline class="st3" points="46,94 64,112 84,93 	"/>
</g>
</svg>
